<svg version="1.2" xmlns="http://www.w3.org/2000/svg" viewBox="0 0 39 41" width="39" height="41">
	<title>features_icon01-svg</title>
	<style>
		.s0 { fill: #e5172b } 
	</style>
	<path id="Layer" fill-rule="evenodd" class="s0" d="m30.3 30.4c1.1 1.5 0.3 2.7-0.2 4-0.3 0.7-0.6 1.5-0.9 2.1-0.5 1 0 1.7 0.3 2.4 0.1 0.2 0.4 0.2 0.7 0.2 0.6 0.1 1.2 0.1 1.8 0.1 0.6 0 1.4 0 1.4 0.9 0.1 0.9-0.7 0.9-1.4 0.9q-1 0-2 0-11.8 0-23.7 0c-0.7 0-1.5 0.1-1.7-0.9-0.1-0.7 0.5-0.9 1.8-0.9q0.3 0 0.7 0c1.7 0 2.4-1.1 1.8-2.7-0.4-0.9-0.8-1.8-1.1-2.8-0.3-0.9-0.4-1.8-0.7-2.8-1.2 0-2.7 0-4.1 0q-0.9 0-1.8 0c-0.7 0-1.2-0.2-1.2-0.9 0-0.8 0.5-1 1.2-1q2 0.1 4 0c1 0 2.3 0.3 3-0.1 0.7-0.5 0.8-1.8 1.2-2.7 1.2-3.2 2.4-6.4 3.8-9.5 0.5-1.3 0.6-2.5 0.8-3.9 0.1-1 0-1.9-0.1-2.9-0.3-1.7 0.3-3.1 1.5-4.3 0.3-0.3 0.4-0.7 0.5-1.1 0.1-0.5 0-1.1 0-1.6 0.1-1.6 1.4-2.9 3-2.9 1.7 0 3 1.1 3.1 2.8q0 0.3 0 0.5c-0.1 1.1 0.2 2 1 2.9 1.2 1.3 1.4 3 0.9 4.7-0.1 0.4 0.1 0.8 0.1 1.2 0 0.3 0.1 0.6 0.1 0.9 0 1.2 0.2 2.3 0.7 3.5 1.6 3.7 3 7.5 4.5 11.2 0.2 0.7 0.5 0.9 1.3 0.9 1.9 0 3.9 0 5.8 0 0.7 0 1.6-0.2 1.6 0.9 0 1.1-0.9 0.9-1.6 0.9-2 0-3.9 0-6.1 0zm-19.8 8.7c5.8 0 11.3 0 17.1 0-1.1-2.8-2.1-5.4-3.2-8-0.1-0.3-0.5-0.7-0.7-0.6-0.6 0-1.3-0.4-1.8 0.4-1.2 2.3-3.9 2.4-5.5 0.5-0.2-0.2-0.4-0.5-0.7-0.5-1.6-0.3-1.9-0.1-2.5 1.4q-0.7 1.6-1.3 3.1c-0.4 1.2-0.9 2.4-1.4 3.7zm4-10.2c0.8 0.3 1.3 0.2 1.6-0.6 0.4-1.2 1.3-1.9 2.6-2 1.4-0.1 2.5 0.4 3.1 1.6 0.4 0.7 0.8 0.8 1.6 0.6-1.5-3.6-2.9-7.2-4.4-11-1.5 3.9-3 7.6-4.5 11.4zm4.4-17.3c0.6 0 1.1-0.1 1.6 0 0.9 0.1 1.3-0.3 1.6-1 0.5-1.4 0.1-2.9-1-3.8-1.2-0.9-2.7-1-3.9-0.2-1.2 0.7-1.8 2.2-1.5 3.6 0.4 1.1 0.7 1.4 1.9 1.4q0.7 0 1.3 0zm-1.7 5.5c-0.5 0-0.7 0-0.9 0-1.1-0.2-1.5 0.3-1.9 1.2-0.7 2-1.5 3.9-2.2 5.9-0.6 1.6-1.3 3.1-1.9 4.8 0.4 0 0.6 0 0.8 0.1 1 0.1 1.5-0.2 1.9-1.2 0.6-1.9 1.4-3.7 2.1-5.5 0.7-1.7 1.3-3.4 2.1-5.3zm3.7 0c1.3 3.4 2.6 6.6 3.8 9.8 0.8 1.8 0.8 1.8 2.9 1.6q-2.2-5.5-4.3-11c-0.1-0.2-0.4-0.4-0.6-0.4-0.5 0-1.1 0-1.8 0zm-5.1-1.9c2.2 0 4.3 0 6.4 0 0-0.6 0-1.1 0-1.7-2.1 0-4.2 0-6.4 0 0 0.6 0 1.1 0 1.7zm10.3 15.2c0.6 1.5 1.2 2.9 1.8 4.4 0.4-0.9 0.7-1.7 0.9-2.4 0.3-0.7-0.3-1.9-0.8-1.9-0.6-0.1-1.2-0.1-1.9-0.1zm-7.1-2.3c-0.7 0-1.4 0.6-1.4 1.4 0 0.7 0.6 1.3 1.4 1.3 0.8 0 1.4-0.6 1.4-1.3 0-0.7-0.6-1.4-1.4-1.4zm-8.8 6.7c0.5-1.4 1-2.6 1.5-3.9-0.5 0-0.9 0-1.2 0-1.2 0-1.6 0.6-1.2 1.7 0.2 0.7 0.5 1.3 0.9 2.2zm7.6-30.6c0.8 0 1.5 0 2.3 0 0.1-0.7 0.4-1.6-0.5-2.1-0.3-0.2-0.9-0.2-1.2 0-0.9 0.5-0.6 1.4-0.6 2.1zm14.7 17.9c0-1.7 1.5-3.2 3.2-3.2 1.8 0 3.3 1.5 3.3 3.3 0 1.7-1.5 3.2-3.3 3.2-1.7 0-3.2-1.5-3.2-3.3zm4.6 0c0-0.7-0.6-1.3-1.4-1.3-0.7 0-1.3 0.6-1.3 1.3 0 0.8 0.6 1.4 1.4 1.4 0.7 0 1.4-0.6 1.3-1.4zm-29.7-10.6c0 1.6-1.3 2.8-2.8 2.8-1.5 0-2.8-1.2-2.8-2.7 0-1.5 1.2-2.8 2.7-2.8 1.6 0 2.9 1.2 2.9 2.7zm-1.5 0c-0.6-0.4-1-0.8-1.3-0.8-0.3 0.1-0.8 0.5-0.9 0.9-0.1 0.5 0.4 1 1 0.8 0.3 0 0.6-0.4 1.2-0.9zm-5.9 10.1q0-0.8 0-1.7c1.2 0 2.4 0 3.6 0 0 0.6 0 1.1 0 1.7-1.2 0-2.4 0-3.6 0zm33.4-17.4c-1.2 0-2.4 0-3.6 0 0-0.6 0-1.2 0-1.8 1.2 0 2.3 0 3.6 0 0 0.6 0 1.1 0 1.8zm-28.8 15.7c0.7 0 1.2 0 1.8 0 0 0.6 0 1.1 0 1.7-0.6 0-1.1 0-1.8 0 0-0.5 0-1.1 0-1.7zm31.6-17.4c0 0.5 0 1 0 1.6-0.6 0-1.1 0-1.7 0q0-0.7 0-1.6 0.8 0 1.7 0zm-27.1 4.6c-0.3-0.4-0.8-0.7-0.7-1 0.1-0.3 0.5-0.8 0.9-0.9 0.2 0 0.8 0.5 0.8 0.8 0 0.3-0.4 0.7-0.6 1.1q-0.2 0-0.4 0zm-5.7 29.4c-0.2-0.3-0.6-0.7-0.6-1.1 0-0.3 0.5-0.8 0.9-0.8 0.3 0 0.8 0.5 0.8 0.8 0 0.4-0.4 0.8-0.6 1.1q-0.2 0-0.5 0zm32.6 0c-0.2-0.3-0.6-0.7-0.6-1-0.1-0.6 0.3-1 0.9-0.9 0.3 0.1 0.8 0.6 0.8 0.9 0 0.3-0.4 0.7-0.7 1q-0.2 0-0.4 0zm0.4-27.5c-0.4 0.3-0.8 0.7-1.2 0.7-0.3-0.1-0.7-0.6-0.8-0.9-0.1-0.6 0.4-1 0.9-0.9 0.4 0.1 0.7 0.5 1.1 0.7q0 0.2 0 0.4zm-7.6 4c0.4 0.6 0.9 1 0.8 1.3 0 0.3-0.4 0.8-0.8 0.9-0.5 0.1-1-0.3-0.9-0.9 0-0.3 0.4-0.6 0.9-1.3zm-22.9 12.3c-0.6 0.5-0.9 0.9-1.3 0.9-0.5 0.1-1-0.3-0.9-0.9 0.1-0.3 0.6-0.7 0.9-0.8 0.3 0 0.7 0.4 1.3 0.8zm13.3 8.2c0.3 0.4 0.7 0.7 0.7 1-0.1 0.4-0.5 0.9-0.9 0.9-0.5 0.1-1-0.3-0.9-0.9 0.1-0.4 0.5-0.7 0.7-1q0.2 0 0.4 0zm0 2.8c0.2 0.3 0.7 0.7 0.7 1-0.1 0.3-0.5 0.8-0.8 0.9-0.6 0.1-1-0.3-1-0.9 0.1-0.4 0.5-0.7 0.7-1q0.2 0 0.4 0z"/>
</svg>