<svg version="1.2" xmlns="http://www.w3.org/2000/svg" viewBox="0 0 50 39" width="50" height="39">
	<title>features_icon02-svg</title>
	<style>
		.s0 { fill: #e5172b } 
		.s1 { fill: #fe5d14 } 
	</style>
	<path id="Layer" fill-rule="evenodd" class="s0" d="m26.9 17.9h19.3c1.7 0 1.9 0.2 1.9 1.8q0 8.3 0 16.6c0 1.5-0.2 1.7-1.7 1.7h-39c-1.5 0-1.8-0.2-1.8-1.7q0-8.3 0-16.7c0-1.5 0.3-1.7 1.7-1.7q9.8 0 19.6 0zm2.7 18v-16h-21.9v16zm5 0c0-2.1 0-4.2 0-6.3q-0.1-0.9 0.1-1.9c0.6-2.1 2.6-3.3 4.8-3.1 2.1 0.3 3.7 2 3.7 4.3 0.1 2 0.1 4 0.1 6 0 0.4 0 0.7 0 1h2.7v-16h-14.2v16zm6.7 0c0-2.4 0-4.8 0-7.2q-0.1-0.4-0.2-0.7c-0.4-1-1.4-1.5-2.4-1.4-1 0.1-1.9 0.8-2 1.7-0.1 2.5 0 5 0 7.6z"/>
	<path id="Layer" fill-rule="evenodd" class="s0" d="m38.9 2.6c-1 1.3-1.9 2.5-2.8 3.7-2.2 3-4.4 5.9-6.5 8.9q-0.3 0.4-0.8 0.7-0.4 0.2-1 0.2c-8.4 0-16.9 0-25.3 0-0.5 0-1.2-0.3-1.5-0.6-0.1-0.3 0.1-1 0.4-1.4 3.2-4.5 6.5-8.9 9.7-13.3q0.3-0.4 0.7-0.6 0.5-0.2 0.9-0.2c8.7 0 17.3 0 25.9 0.1q0.4 0 0.8 0.2 0.3 0.2 0.6 0.5c3.2 4.4 6.4 8.9 9.6 13.4 0.4 0.6 0.6 1.2 0 1.7-0.8 0.5-1.3 0-1.7-0.6q-4.1-5.8-8.3-11.7c-0.2-0.3-0.4-0.6-0.7-1zm-2.2-0.5q-0.2-0.1-0.5-0.1c-7.6 0-15.2 0-22.8 0-0.4 0-0.9 0.4-1.1 0.7-2.6 3.5-5.2 7-7.8 10.6-0.2 0.2-0.3 0.4-0.5 0.7 0.4 0 0.6 0.1 0.8 0.1q11.2 0 22.3-0.1 0.4 0 0.7-0.2 0.3-0.1 0.6-0.4c1.2-1.6 2.4-3.3 3.7-5z"/>
	<path id="Layer" fill-rule="evenodd" class="s1" d="m18.8 24q2.8 0 5.6 0c1.1 0 1.5 0.3 1.5 1.4q0 2.6 0 5.2c0 1.1-0.4 1.4-1.5 1.4q-5.6 0-11.2 0c-1.2 0-1.5-0.3-1.5-1.4q0-2.6 0-5.2c0-1.2 0.3-1.4 1.5-1.4q2.8 0 5.6 0zm5 2.1h-10v3.8h10z"/>
	<path id="Layer" class="s0" d="m17.1 12.4c-0.3-0.3-0.7-0.5-0.7-0.7-0.1-0.4 0-0.8 0.2-1.2 1.1-1.3 2.3-2.6 3.4-3.9l1.2-1.4c0.5-0.5 1-0.6 1.5-0.2 0.6 0.4 0.5 1 0.1 1.5q-2.4 2.7-4.7 5.3c-0.2 0.3-0.6 0.4-1 0.6z"/>
	<path id="Layer" class="s0" d="m29 5.7q-0.2 0.5-0.5 0.9-2.3 2.6-4.6 5.2c-0.5 0.5-1 0.7-1.6 0.2-0.5-0.5-0.4-1 0.1-1.5 1.5-1.8 3-3.5 4.6-5.2 0.3-0.3 0.9-0.5 1.3-0.4 0.2 0 0.5 0.5 0.7 0.8z"/>
	<path id="Layer" class="s0" d="m11.3 12.4c-0.2-0.3-0.7-0.5-0.7-0.7-0.1-0.4 0-0.9 0.2-1.2 1.3-1.5 2.6-3 4-4.5 0.2-0.3 0.5-0.7 0.8-0.9 0.4-0.1 1.1-0.2 1.3 0 0.3 0.2 0.4 1 0.2 1.2-1.6 2-3.3 3.8-5 5.7-0.1 0.2-0.4 0.2-0.8 0.4z"/>
</svg>