<svg version="1.2" xmlns="http://www.w3.org/2000/svg" viewBox="0 0 38 38" width="38" height="38">
	<title>features_icon03-svg</title>
	<style>
		.s0 { fill: #e5172b } 
	</style>
	<path id="Layer" fill-rule="evenodd" class="s0" d="m18.1 26c-0.8 0.8-1.7 1.6-2.5 2.5-0.1 0.1-0.2 0.4-0.1 0.7 0.4 4.5-3 8.5-7.4 8.6-4.6 0.2-8.3-3.5-8.1-8.1 0.2-4.4 4.2-7.9 8.6-7.4 0.3 0.1 0.6 0 0.8-0.2 0.8-0.7 1.6-1.5 2.4-2.3-1.3-1.9-1.3-1.9-0.1-3.3q-0.2-0.3-0.4-0.5c-1.6-1.6-3.1-3.2-4.7-4.7-0.3-0.3-0.7-0.4-1.1-0.5-0.6 0-1.3 0-1.9 0q-0.9 0-1.2-0.8-1.2-3.5-2.3-7c-0.1-0.3 0.1-0.7 0.2-1 0-0.1 0.1-0.2 0.2-0.2 2.3-2.3 1.5-2 4.3-1.2 1.7 0.6 3.3 1.2 5 1.7 0.7 0.2 1.2 0.7 1 1.5-0.2 1.7 0.4 2.9 1.7 4 1.4 1.2 2.6 2.6 3.9 3.9 1.8-1.2 1.8-1.2 3.4 0.1q1.2-1.2 2.5-2.5c0.1-0.1 0.1-0.4 0.1-0.6-0.5-4.8 3.2-8.9 8-8.7 1 0.1 1.9 0.4 2.8 0.7 1 0.3 1.1 1.2 0.4 2-0.7 0.8-1.5 1.7-2.4 2.4-0.6 0.6-0.8 1.3-0.6 2.1 0.8 0.2 1.4 0.2 2.1-0.5 0.7-0.8 1.6-1.6 2.4-2.4 0.9-0.8 1.7-0.6 2.1 0.4 1.1 2.7 0.9 5.3-0.9 7.6-1.7 2.4-4.1 3.4-7 3.2-0.4-0.1-0.7 0-1 0.3-0.7 0.8-1.5 1.5-2.3 2.3 1.4 1.4 2.7 2.8 4.1 4.1q3.2 3.2 6.5 6.5c1.7 1.7 1.7 3.6 0 5.3q-1.3 1.3-2.6 2.6c-1.7 1.7-3.5 1.7-5.3 0-3.5-3.6-7-7-10.6-10.6zm15 8.5c-0.4-0.3-0.6-0.4-0.8-0.6q-4.6-4.6-9.2-9.2c-0.1-0.2-0.3-0.3-0.4-0.5-0.4-0.5-0.4-1 0.1-1.5 0.4-0.4 0.9-0.4 1.4 0q0.3 0.2 0.5 0.4 3.8 3.8 7.5 7.5 1.2 1.2 2.3 2.3c1.4-1.2 1.5-1.6 0.2-3q-4.7-4.6-9.4-9.3c-0.5-0.5-1-0.8-1.7-1-2.1-0.5-3.5-1.9-4-4-0.2-1-0.8-1.6-1.4-2.1-1.6 1.5-3.2 3.1-4.7 4.6 0.6 0.7 1.2 1.3 2.3 1.5 1.8 0.4 3.1 1.6 3.6 3.4 0.4 1.3 1.1 2.3 2.1 3.1 0.6 0.6 1.2 1.3 1.9 1.9q3.5 3.5 7 7.1c0.7 0.7 1.2 0.7 2 0 0.1-0.2 0.4-0.3 0.7-0.6zm-25.5-10c-2 0.1-3.8 1.1-4.8 3.1-1 2-0.8 4 0.6 5.8 1.3 1.8 3.2 2.5 5.4 2.1 3-0.6 4.9-3.4 4.4-6.5-0.2-0.7 0-1.3 0.6-1.8 0.9-0.9 1.8-1.9 2.7-2.8 0.9-0.9 0.9-1.2-0.1-2-0.3-0.3-0.8-0.5-1.3-0.7-0.4-0.1-0.8-0.1-1.1-0.3-0.4-0.2-0.7-0.1-1 0.3-0.6 0.6-1.3 1.2-1.8 1.8-0.8 1-1.7 1.5-2.9 1-0.2 0-0.3 0-0.7 0zm23.3-21.9q-0.1-0.2-0.3-0.5c-0.7 0.2-1.5 0.2-2.3 0.4-2.6 0.9-4.2 3.5-3.7 6.2 0.2 0.8 0.1 1.4-0.6 2-0.6 0.5-1 1.1-1.6 1.6-1 0.7-1.2 1.5-0.8 2.6 0.4 0.9 0.7 1.6 1.5 2.1 0.4 0.3 0.6 0.3 0.9-0.1 1.1-1 2.2-2 3.2-3.1 0.5-0.6 1.1-0.8 1.9-0.6 2.9 0.6 5.8-1.4 6.4-4.2 0.1-0.6 0.1-1.2 0.1-1.9q-0.1 0-0.2 0c-0.6 0.6-1.3 1.3-2 1.9-0.3 0.3-0.7 0.5-1.1 0.5q-1.4 0.1-2.8 0c-0.3 0-0.9-0.3-1-0.5-0.3-1.4-0.5-2.9 0.1-4.2 0.2-0.6 0.8-1.1 1.3-1.5 0.3-0.3 0.7-0.5 1-0.7zm-16 10.7q-0.3-0.2-0.5-0.5c-1.4-1.4-2.7-2.8-4.1-4-1.2-1.1-2-2.3-1.7-4 0.1-0.4-0.1-0.6-0.5-0.7-1.6-0.5-3.1-1.1-4.7-1.5-0.2-0.1-0.5 0-0.7 0.1-0.2 0.2-0.2 0.5-0.2 0.8 0.4 1.2 0.8 2.3 1.2 3.5 0.5 1.6 0.5 1.7 2.2 1.6 0.8 0 1.4 0.2 1.9 0.8 1.7 1.7 3.3 3.3 5 4.9q0.2 0.3 0.5 0.6c0.6-0.6 1-1 1.6-1.6z"/>
	<path id="Layer" fill-rule="evenodd" class="s0" d="m7.7 33.4c-1.8 0-3.3-1.6-3.3-3.4 0.1-1.8 1.6-3.3 3.4-3.3 1.8 0.1 3.3 1.6 3.3 3.4 0 1.8-1.5 3.3-3.4 3.3zm0.1-2.2c0.6 0 1.1-0.6 1.1-1.1 0-0.6-0.5-1.1-1.2-1.1-0.5 0-1 0.5-1 1.1 0 0.6 0.5 1.1 1.1 1.1z"/>
</svg>